REM MD5 93e869c0bb430b6528c071afb59bd4c6
FILE "Treasures of the Deep (France).bin" BINARY
  TRACK 01 MODE2/2352
    INDEX 01 00:00:00
  TRACK 02 AUDIO
    INDEX 00 42:38:45
    INDEX 01 42:40:45
  TRACK 03 AUDIO
    INDEX 00 45:12:25
    INDEX 01 45:14:25
REM LEADOUT 47:09:55
